<svg width="16" height="9" viewBox="0 0 16 9" fill="none" xmlns="http://www.w3.org/2000/svg">
<path d="M7.99997 8.00003C7.76632 8.00049 7.53988 7.91911 7.35997 7.77003L1.35997 2.77003C1.15575 2.60029 1.02733 2.35638 1.00295 2.09196C0.97857 1.82753 1.06023 1.56425 1.22997 1.36003C1.39971 1.15581 1.64362 1.02739 1.90805 1.00301C2.17247 0.978631 2.43575 1.06029 2.63997 1.23003L7.99997 5.71003L13.36 1.39003C13.4623 1.30697 13.58 1.24493 13.7063 1.2075C13.8326 1.17007 13.9651 1.15798 14.0962 1.17192C14.2272 1.18586 14.3542 1.22555 14.4698 1.28873C14.5854 1.3519 14.6874 1.4373 14.77 1.54003C14.8616 1.64285 14.9309 1.76348 14.9737 1.89435C15.0165 2.02523 15.0318 2.16353 15.0187 2.30059C15.0055 2.43765 14.9642 2.57053 14.8973 2.69088C14.8304 2.81124 14.7394 2.91649 14.63 3.00003L8.62997 7.83003C8.44489 7.95555 8.22307 8.0154 7.99997 8.00003Z" fill="#222222"/>
</svg>
