<svg width="19" height="19" viewBox="0 0 19 19" fill="none" xmlns="http://www.w3.org/2000/svg">
<path d="M17.71 17.2653L14.31 13.8753C15.407 12.4778 16.0022 10.752 16 8.97534C16 7.39309 15.5308 5.84638 14.6518 4.53078C13.7727 3.21519 12.5233 2.18981 11.0615 1.58431C9.59966 0.978808 7.99113 0.820381 6.43928 1.12906C4.88743 1.43774 3.46197 2.19967 2.34315 3.31849C1.22433 4.43731 0.462403 5.86277 0.153721 7.41462C-0.15496 8.96647 0.00346625 10.575 0.608967 12.0368C1.21447 13.4986 2.23985 14.748 3.55544 15.6271C4.87103 16.5061 6.41775 16.9753 8 16.9753C9.77666 16.9776 11.5025 16.3823 12.9 15.2853L16.29 18.6853C16.383 18.7791 16.4936 18.8535 16.6154 18.9042C16.7373 18.955 16.868 18.9811 17 18.9811C17.132 18.9811 17.2627 18.955 17.3846 18.9042C17.5064 18.8535 17.617 18.7791 17.71 18.6853C17.8037 18.5924 17.8781 18.4818 17.9289 18.3599C17.9797 18.2381 18.0058 18.1074 18.0058 17.9753C18.0058 17.8433 17.9797 17.7126 17.9289 17.5908C17.8781 17.4689 17.8037 17.3583 17.71 17.2653ZM2 8.97534C2 7.78866 2.3519 6.62862 3.01119 5.64192C3.67047 4.65523 4.60755 3.88619 5.7039 3.43207C6.80026 2.97794 8.00666 2.85912 9.17054 3.09063C10.3344 3.32214 11.4035 3.89359 12.2426 4.7327C13.0818 5.57182 13.6532 6.64092 13.8847 7.8048C14.1162 8.96869 13.9974 10.1751 13.5433 11.2714C13.0892 12.3678 12.3201 13.3049 11.3334 13.9642C10.3467 14.6234 9.18669 14.9753 8 14.9753C6.4087 14.9753 4.88258 14.3432 3.75736 13.218C2.63214 12.0928 2 10.5666 2 8.97534Z" fill="#222222"/>
</svg>
