<svg width="14" height="11" viewBox="0 0 14 11" fill="none" xmlns="http://www.w3.org/2000/svg">
<path d="M11.7219 2.65371C11.7302 2.76858 11.7302 2.8828 11.7302 2.99701C11.7302 6.49244 9.13695 10.5202 4.39771 10.5202C2.93761 10.5202 1.58116 10.0863 0.439697 9.33276C0.647003 9.35704 0.846631 9.36557 1.06225 9.36557C2.22227 9.36845 3.34943 8.9705 4.26206 8.23588C3.72423 8.22589 3.20287 8.04385 2.77076 7.71517C2.33866 7.38649 2.01739 6.92757 1.85181 6.40251C2.01113 6.4268 2.17109 6.44321 2.33872 6.44321C2.5697 6.44321 2.80196 6.41039 3.01758 6.35328C2.4339 6.23237 1.90906 5.9078 1.53229 5.43474C1.15552 4.96169 0.950088 4.36935 0.950924 3.75846V3.72564C1.29451 3.92191 1.69313 4.04466 2.11542 4.06107C1.76165 3.81989 1.47157 3.49262 1.27106 3.10847C1.07055 2.72431 0.96584 2.29521 0.96628 1.85944C0.96628 1.36844 1.09361 0.918141 1.31691 0.525604C1.96451 1.34286 2.77221 2.01144 3.68771 2.48807C4.6032 2.96469 5.60607 3.23872 6.63136 3.2924C6.59169 3.09548 6.56738 2.89133 6.56738 2.68653C6.56721 2.33926 6.63376 1.99536 6.76322 1.67449C6.89268 1.35362 7.08251 1.06208 7.32186 0.81652C7.56122 0.570963 7.8454 0.37621 8.15816 0.243396C8.47092 0.110581 8.80613 0.0423082 9.14463 0.0424808C9.88683 0.0424808 10.5567 0.361499 11.0277 0.877443C11.6046 0.762976 12.1579 0.546886 12.6631 0.238749C12.4707 0.849753 12.0679 1.36786 11.5299 1.696C12.0417 1.63612 12.5418 1.49805 13.0137 1.28639C12.6612 1.81356 12.2245 2.27584 11.7219 2.65371Z" fill="#00395F"/>
</svg>
